<?xml version="1.0" encoding="utf-8"?>
<svg width="2500" height="588" viewBox="0 -0.225 84.762 19.048" xmlns="http://www.w3.org/2000/svg">
  <path d="M 69.012 5.487 C 69.336 6.046 69.442 6.682 69.477 7.397 L 69.523 8.35 L 69.523 15.014 L 69.57 15.968 C 69.664 17.526 70.813 18.678 72.383 18.776 L 73.332 18.823 L 73.332 8.35 L 73.379 7.397 C 73.418 6.69 73.523 6.042 73.852 5.479 C 75.322 2.946 78.981 2.953 80.442 5.491 C 80.766 6.05 80.867 6.698 80.906 7.397 L 80.953 8.347 L 80.953 15.014 L 81 15.968 C 81.098 17.534 82.238 18.686 83.813 18.776 L 84.762 18.823 L 84.762 7.397 C 84.762 3.189 81.352 -0.222 77.145 -0.223 C 74.957 -0.226 72.875 0.715 71.43 2.358 C 69.985 0.716 67.903 -0.225 65.715 -0.224 C 64.133 -0.224 62.665 0.256 61.449 1.085 C 60.707 0.257 59.047 -0.224 58.094 -0.224 L 58.094 18.823 L 59.047 18.776 C 60.641 18.671 61.793 17.55 61.855 15.968 L 61.906 15.014 L 61.906 8.35 L 61.953 7.397 C 61.993 6.678 62.093 6.046 62.418 5.483 C 63.101 4.308 64.357 3.585 65.715 3.585 C 67.075 3.585 68.331 4.31 69.012 5.487 Z M 3.809 18.777 L 4.762 18.823 L 19.047 18.823 L 19 17.873 C 18.871 16.307 17.762 15.163 16.191 15.061 L 15.238 15.014 L 6.668 15.014 L 18.094 3.584 L 18.047 2.635 C 17.973 1.053 16.817 -0.09 15.238 -0.177 L 14.285 -0.22 L 0 -0.224 L 0.047 0.729 C 0.172 2.28 1.297 3.448 2.855 3.538 L 3.809 3.585 L 12.379 3.585 L 0.953 15.015 L 1 15.968 C 1.094 17.538 2.227 18.675 3.809 18.776 Z M 54.355 2.564 C 58.075 6.283 58.075 12.314 54.355 16.033 C 50.634 19.751 44.604 19.751 40.883 16.033 C 37.164 12.314 37.164 6.283 40.883 2.564 C 42.668 0.778 45.089 -0.225 47.613 -0.225 C 50.142 -0.227 52.567 0.777 54.355 2.565 Z M 51.66 5.261 C 53.891 7.493 53.891 11.11 51.66 13.343 C 49.428 15.573 45.81 15.573 43.578 13.343 C 41.347 11.11 41.347 7.493 43.578 5.261 C 45.81 3.03 49.428 3.03 51.66 5.261 Z M 27.625 -0.225 C 30.15 -0.225 32.57 0.779 34.355 2.565 C 38.075 6.283 38.075 12.315 34.355 16.033 C 30.634 19.751 24.604 19.751 20.883 16.033 C 17.164 12.314 17.164 6.283 20.883 2.564 C 22.668 0.778 25.089 -0.225 27.613 -0.225 L 27.625 -0.225 Z M 31.66 5.259 C 33.891 7.491 33.891 11.109 31.66 13.342 C 29.428 15.572 25.81 15.572 23.578 13.342 C 21.347 11.109 21.347 7.492 23.578 5.26 C 25.81 3.029 29.428 3.029 31.66 5.26 Z" fill="#2D8CFF" fill-rule="evenodd"/>
</svg>